#!OML:ASF E:\motion texture\Top Level 1\Subject 1\Session 1\male.ASF
:FULLY-SPECIFIED
:DEGREES
577
root -7.71235 18.0089 3.85545 90.8263 -85.0556 -87.0705
lowerback -2.9501 2.78566 3.74823
upperback -3.34304 3.60099 -0.158496
thorax -1.54495 1.70139 -2.19434
lowerneck -10.169 -3.31141 -8.4688
upperneck -16.5017 -3.2302 12.9668
head -2.82165 -1.8194 5.42977
rclavicle 2.62893e-014 -3.57812e-015
rhumerus 41.3839 28.5992 -60.7259
rradius 89.7503
rwrist 24.554
rhand -43.0246 -36.3365
rfingers 7.12502
rthumb -15.8821 -65.7052
lclavicle 2.62893e-014 -3.57812e-015
lhumerus 35.872 -23.3054 63.8103
lradius 96.1613
lwrist 28.0402
lhand -11.1247 45.5263
lfingers 7.12502
lthumb 14.9004 74.9704
rfemur -10.4318 -2.76763 25.26
rtibia 52.6214
rfoot -0.490904 -14.1622
rtoes 0.127968
lfemur -19.3077 -5.69284 -11.9282
ltibia 18.8782
lfoot -1.77174 0.058194
ltoes -2.35705
578
root -7.84297 18.0151 3.87708 91.0462 -85.3116 -87.4003
lowerback -2.92044 2.748 3.52599
upperback -3.26309 3.55619 -0.166819
thorax -1.49399 1.68635 -2.0795
lowerneck -10.3345 -3.32575 -8.44065
upperneck -15.9294 -3.26097 12.9273
head -2.62317 -1.813 5.39231
rclavicle -3.77194e-014 -5.96354e-015
rhumerus 38.9226 30.0366 -61.8936
rradius 89.7408
rwrist 24.2479
rhand -42.9366 -36.2028
rfingers 7.12502
rthumb -15.7973 -65.5782
lclavicle -3.77194e-014 -5.96354e-015
lhumerus 33.5635 -24.7069 64.2144
lradius 96.3153
lwrist 26.7859
lhand -11.0371 45.2149
lfingers 7.12502
lthumb 14.9848 74.6527
rfemur -11.29 -2.95942 24.8307
rtibia 53.7061
rfoot -0.0911787 -14.5049
rtoes 0.790504
lfemur -18.6682 -5.76248 -12.4115
ltibia 18.8338
lfoot -2.04538 0.0334
ltoes -2.11588
579
root -7.97273 18.0212 3.89823 91.2862 -85.5653 -87.7447
lowerback -2.886 2.70679 3.30579
upperback -3.18317 3.50684 -0.171248
thorax -1.44591 1.66872 -1.96212
lowerneck -10.5053 -3.33766 -8.4087
upperneck -15.3555 -3.29005 12.8795
head -2.4245 -1.80563 5.35226
rclavicle 1.25234e-014 1.63003e-014
rhumerus 36.362 31.4145 -63.203
rradius 89.5974
rwrist 23.8837
rhand -42.8249 -36.0675
rfingers 7.12502
rthumb -15.6897 -65.4514
lclavicle 1.25234e-014 1.63003e-014
lhumerus 31.1878 -26.1132 64.7292
lradius 96.3191
lwrist 25.4056
lhand -10.961 44.8649
lfingers 7.12502
lthumb 15.0581 74.2972
rfemur -12.1659 -3.14545 24.4123
rtibia 54.7167
rfoot 0.236288 -14.8561
rtoes 1.4328
lfemur -18.0233 -5.82828 -12.8899
ltibia 18.7706
lfoot -2.34279 0.0221713
ltoes -1.89037
580
root -8.1016 18.0271 3.91885 91.5559 -85.8145 -88.1114
lowerback -2.84793 2.66187 3.08961
upperback -3.10395 3.45262 -0.170415
thorax -1.40072 1.64831 -1.84186
lowerneck -10.6786 -3.34656 -8.37639
upperneck -14.7823 -3.31611 12.8259
head -2.22672 -1.79668 5.31116
rclavicle 2.96438e-014 6.36111e-015
rhumerus 33.6986 32.7147 -64.6599
rradius 89.3153
rwrist 23.4504
rhand -42.6833 -35.9385
rfingers 7.12502
rthumb -15.5533 -65.333
lclavicle 2.96438e-014 6.36111e-015
lhumerus 28.7418 -27.5065 65.3686
lradius 96.1627
lwrist 23.9066
lhand -10.8945 44.478
lfingers 7.12502
lthumb 15.1222 73.9056
rfemur -13.0567 -3.32518 24.0073
rtibia 55.6455
rfoot 0.489904 -15.2144
rtoes 2.04751
lfemur -17.3758 -5.89127 -13.3598
ltibia 18.6879
lfoot -2.65446 0.0263647
ltoes -1.67129
581
root -8.22965 18.0328 3.93896 91.8785 -86.0569 -88.523
lowerback -2.80714 2.61414 2.88066
upperback -3.02454 3.3946 -0.164625
thorax -1.35665 1.62564 -1.72072
lowerneck -10.8589 -3.35224 -8.34099
upperneck -14.2117 -3.33895 12.7652
head -2.02972 -1.78618 5.26816
rclavicle -2.69105e-014 -3.97569e-016
rhumerus 30.9386 33.9145 -66.2623
rradius 88.8908
rwrist 22.9343
rhand -42.5088 -35.809
rfingers 7.12502
rthumb -15.3852 -65.2165
lclavicle -2.69105e-014 -3.97569e-016
lhumerus 26.2274 -28.8683 66.1409
lradius 95.838
lwrist 22.2992
lhand -10.8429 44.0621
lfingers 7.12502
lthumb 15.1718 73.4859
rfemur -13.96 -3.49572 23.6183
rtibia 56.4865
rfoot 0.670336 -15.5785
rtoes 2.63146
lfemur -16.7291 -5.94761 -13.819
ltibia 18.5908
lfoot -2.98187 0.0449766
ltoes -1.48938
582
root -8.35692 18.0382 3.95856 92.2682 -86.292 -88.9917
lowerback -2.76454 2.5635 2.67928
upperback -2.94589 3.33259 -0.153376
thorax -1.31417 1.60061 -1.59835
lowerneck -11.0456 -3.35469 -8.30467
upperneck -13.6432 -3.35814 12.6993
head -1.8333 -1.77387 5.22421
rclavicle 8.29926e-015 -3.97569e-015
rhumerus 28.0865 34.9959 -68.0044
rradius 88.324
rwrist 22.3221
rhand -42.303 -35.6657
rfingers 7.12502
rthumb -15.187 -65.0883
lclavicle 8.29926e-015 -3.97569e-015
lhumerus 23.6427 -30.1768 67.0554
lradius 95.3379
lwrist 20.5954
lhand -10.8012 43.6157
lfingers 7.12502
lthumb 15.212 73.0365
rfemur -14.8732 -3.65619 23.2458
rtibia 57.2328
rfoot 0.778949 -15.9466
rtoes 3.18096
lfemur -16.085 -6.00032 -14.2661
ltibia 18.4776
lfoot -3.32215 0.0758708
ltoes -1.34073
583
root -8.48342 18.0432 3.97762 92.7227 -86.5199 -89.517
lowerback -2.71869 2.51002 2.48562
upperback -2.86945 3.2667 -0.137066
thorax -1.27547 1.57323 -1.47535
lowerneck -11.2259 -3.35288 -8.26484
upperneck -13.0844 -3.37276 12.6264
head -1.64188 -1.75991 5.17872
rclavicle -4.5472e-015 -3.57812e-015
rhumerus 25.1446 35.9378 -69.8827
rradius 87.6113
rwrist 21.6003
rhand -42.0638 -35.5459
rfingers 7.12502
rthumb -14.9567 -64.9858
lclavicle -4.5472e-015 -3.57812e-015
lhumerus 20.983 -31.4133 68.1201
lradius 94.6584
lwrist 18.8032
lhand -10.7698 43.1428
lfingers 7.12502
lthumb 15.2422 72.5613
rfemur -15.7901 -3.80699 22.8889
rtibia 57.8779
rfoot 0.818677 -16.317
rtoes 3.69346
lfemur -15.4427 -6.05077 -14.7014
ltibia 18.3482
lfoot -3.67134 0.113966
ltoes -1.22354
584
root -8.60926 18.0479 3.99614 93.2811 -86.74 -90.1368
lowerback -2.67111 2.45392 2.30016
upperback -2.79172 3.19719 -0.115159
thorax -1.23605 1.54376 -1.35123
lowerneck -11.4176 -3.34823 -8.22068
upperneck -12.5307 -3.38439 12.5447
head -1.45122 -1.74463 5.13053
rclavicle 9.64106e-015 1.98785e-015
rhumerus 22.1364 36.7186 -71.8746
rradius 86.7547
rwrist 20.7567
rhand -41.7836 -35.4185
rfingers 7.12502
rthumb -14.6867 -64.8783
lclavicle 9.64106e-015 1.98785e-015
lhumerus 18.2608 -32.5514 69.3325
lradius 93.7938
lwrist 16.9285
lhand -10.7654 42.6542
lfingers 7.12502
lthumb 15.2465 72.0723
rfemur -16.7074 -3.94537 22.5479
rtibia 58.4158
rfoot 0.793881 -16.6874
rtoes 4.16977
lfemur -14.8045 -6.09831 -15.1237
ltibia 18.2031
lfoot -4.02245 0.155673
ltoes -1.12283
585
root -8.73446 18.0521 4.01405 93.8919 -86.9536 -90.7989
lowerback -2.62037 2.39446 2.12128
upperback -2.7156 3.12309 -0.0888469
thorax -1.19973 1.51166 -1.2265
lowerneck -11.6102 -3.33967 -8.17437
upperneck -11.9863 -3.39121 12.4589
head -1.26401 -1.72748 5.08182
rclavicle -3.18801e-014 -3.97569e-015
rhumerus 19.0744 37.3206 -73.9625
rradius 85.7546
rwrist 19.7842
rhand -41.4599 -35.327
rfingers 7.12502
rthumb -14.3748 -64.8093
lclavicle -3.18801e-014 -3.97569e-015
lhumerus 15.4749 -33.5728 70.6882
lradius 92.7481
lwrist 14.9807
lhand -10.7816 42.1514
lfingers 7.12502
lthumb 15.2308 71.5707
rfemur -17.6213 -4.07386 22.2204
rtibia 58.8406
rfoot 0.705571 -17.0572
rtoes 4.62064
lfemur -14.1727 -6.14536 -15.5352
ltibia 18.0439
lfoot -4.37283 0.197535
ltoes -1.03512
586
root -8.85907 18.0558 4.03138 94.6131 -87.1617 -91.5607
lowerback -2.56742 2.33204 1.94841
upperback -2.64049 3.0449 -0.0582546
thorax -1.1653 1.47722 -1.10086
lowerneck -11.8069 -3.32735 -8.12605
upperneck -11.4515 -3.39327 12.3682
head -1.07991 -1.70843 5.0323
rclavicle -1.4387e-014 -3.57812e-015
rhumerus 15.9839 37.7278 -76.1185
rradius 84.6133
rwrist 18.68
rhand -41.077 -35.2598
rfingers 7.12502
rthumb -14.0058 -64.768
lclavicle -1.4387e-014 -3.57812e-015
lhumerus 12.6357 -34.4545 72.1779
lradius 91.5215
lwrist 12.9681
lhand -10.8086 41.6412
lfingers 7.12502
lthumb 15.2049 71.0625
rfemur -18.5293 -4.18998 21.904
rtibia 59.1493
rfoot 0.555996 -17.4226
rtoes 5.05005
lfemur -13.5485 -6.19069 -15.9371
ltibia 17.8725
lfoot -4.72323 0.243694
ltoes -0.966797
587
root -8.98315 18.059 4.04808 95.4432 -87.3639 -92.42
lowerback -2.51301 2.26703 1.78163
upperback -2.56694 2.96308 -0.0236259
thorax -1.13285 1.44069 -0.974574
lowerneck -12.0057 -3.31157 -8.07602
upperneck -10.9261 -3.39088 12.2738
head -0.898933 -1.68767 4.98238
rclavicle 2.80783e-015 2.98177e-015
rhumerus 12.89 37.9259 -78.3103
rradius 83.3348
rwrist 17.4406
rhand -40.6357 -35.2213
rfingers 7.12502
rthumb -13.5805 -64.7584
lclavicle 2.80783e-015 2.98177e-015
lhumerus 9.75404 -35.18 73.7875
lradius 90.1163
lwrist 10.8946
lhand -10.8582 41.1197
lfingers 7.12502
lthumb 15.157 70.5446
rfemur -19.4278 -4.29394 21.5985
rtibia 59.3372
rfoot 0.350332 -17.7818
rtoes 5.45461
lfemur -12.9348 -6.23387 -16.3287
ltibia 17.693
lfoot -5.0735 0.296984
ltoes -0.923253
